<svg width="40" height="40" viewBox="0 0 40 40" fill="none" xmlns="http://www.w3.org/2000/svg">
  <rect width="40" height="40" rx="10" fill="#020617"/>
  <rect x="4" y="4" width="32" height="32" rx="8" fill="#020617" stroke="#1E293B"/>
  <path d="M14 17H18V27H14V17Z" fill="#E2E8F0"/>
  <path d="M16 14C17.1046 14 18 13.1046 18 12C18 10.8954 17.1046 10 16 10C14.8954 10 14 10.8954 14 12C14 13.1046 14.8954 14 16 14Z" fill="#E2E8F0"/>
  <path d="M21 17H24V18.4C24.48 17.68 25.4 17 26.8 17C29.16 17 30 18.32 30 20.84V27H26V21.72C26 20.56 25.64 19.92 24.76 19.92C23.64 19.92 23 20.7 23 22.16V27H21V17Z" fill="#E2E8F0"/>
</svg>
