<svg width="40" height="40" viewBox="0 0 40 40" fill="none" xmlns="http://www.w3.org/2000/svg">
  <rect width="40" height="40" rx="10" fill="#020617"/>
  <rect x="4" y="4" width="32" height="32" rx="8" fill="#020617" stroke="#1E293B"/>
  <path d="M20 11C15.58 11 12 14.58 12 19C12 22.42 14.24 25.34 17.4 26.4C17.8 26.46 17.94 26.22 17.94 26.02C17.94 25.84 17.94 25.36 17.94 24.76C16 25.16 15.52 24.02 15.52 24.02C15.18 23.16 14.64 22.9 14.64 22.9C13.88 22.4 14.7 22.42 14.7 22.42C15.54 22.48 15.98 23.28 15.98 23.28C16.72 24.58 17.96 24.22 18.46 24.02C18.54 23.48 18.76 23.12 19 22.92C17.4 22.72 15.72 22.1 15.72 19.56C15.72 18.84 15.98 18.26 16.4 17.82C16.32 17.62 16.08 16.96 16.46 16C16.46 16 17.08 15.8 17.94 16.4C18.52 16.24 19.12 16.16 19.72 16.16C20.32 16.16 20.92 16.24 21.5 16.4C22.36 15.8 22.98 16 22.98 16C23.36 16.96 23.12 17.62 23.04 17.82C23.46 18.26 23.72 18.84 23.72 19.56C23.72 22.12 22.04 22.72 20.44 22.92C20.76 23.18 21.02 23.7 21.02 24.5C21.02 25.6 21.02 26.46 21.02 26.78C21.02 26.98 21.16 27.22 21.56 27.16C24.72 26.1 27 22.42 27 19C27 14.58 23.42 11 20 11Z" fill="#E2E8F0"/>
</svg>
